<!DOCTYPE svg PUBLIC "-//W3C//DTD SVG 1.1//EN" "http://www.w3.org/Graphics/SVG/1.1/DTD/svg11.dtd">
<!-- Uploaded to: SVG Repo, www.svgrepo.com, Transformed by: SVG Repo Mixer Tools -->
<svg fill="#19f00a" height="256px" width="256px" version="1.1" id="Layer_1" xmlns="http://www.w3.org/2000/svg" xmlns:xlink="http://www.w3.org/1999/xlink" viewBox="0 0 512 512" xml:space="preserve" transform="matrix(-1, 0, 0, 1, 0, 0)" stroke="#19f00a">
<g id="SVGRepo_bgCarrier" stroke-width="0"/>
<g id="SVGRepo_tracerCarrier" stroke-linecap="round" stroke-linejoin="round"/>
<g id="SVGRepo_iconCarrier"> <g> <g> <path d="M256,0c-4.329,0-7.837,3.508-7.837,7.837v34.4c0,4.328,3.508,7.837,7.837,7.837s7.837-3.508,7.837-7.837v-34.4 C263.837,3.508,260.329,0,256,0z"/> </g> </g> <g> <g> <path d="M256,461.926c-4.329,0-7.837,3.508-7.837,7.837v34.4c0,4.329,3.508,7.837,7.837,7.837s7.837-3.508,7.837-7.837v-34.4 C263.837,465.434,260.329,461.926,256,461.926z"/> </g> </g> <g> <g> <path d="M45.386,248.163H11.494c-4.329,0-7.837,3.508-7.837,7.837s3.508,7.837,7.837,7.837h33.892 c4.329,0,7.837-3.508,7.837-7.837S49.714,248.163,45.386,248.163z"/> </g> </g> <g> <g> <path d="M500.506,248.163h-33.891c-4.329,0-7.837,3.508-7.837,7.837s3.508,7.837,7.837,7.837h33.891 c4.329,0,7.837-3.508,7.837-7.837S504.835,248.163,500.506,248.163z"/> </g> </g> <g> <g> <path d="M112.574,401.572c-3.082-3.038-8.045-3.001-11.083,0.083l-23.966,24.324c-3.037,3.082-3,8.045,0.083,11.083 c1.527,1.504,3.513,2.254,5.5,2.254c2.025,0,4.049-0.781,5.583-2.336l23.966-24.324 C115.694,409.573,115.657,404.611,112.574,401.572z"/> </g> </g> <g> <g> <path d="M434.395,74.942c-3.083-3.039-8.046-3.001-11.083,0.081l-23.968,24.322c-3.038,3.082-3.002,8.044,0.081,11.081 c1.528,1.505,3.514,2.255,5.501,2.255c2.025,0,4.049-0.781,5.582-2.336l23.968-24.322 C437.513,82.941,437.478,77.98,434.395,74.942z"/> </g> </g> <g> <g> <path d="M434.477,425.977l-23.969-24.322c-3.039-3.086-7.999-3.121-11.082-0.082c-3.082,3.038-3.118,7.999-0.08,11.081 l23.968,24.322c1.534,1.557,3.557,2.336,5.582,2.336c1.986,0,3.974-0.75,5.501-2.255 C437.479,434.02,437.514,429.059,434.477,425.977z"/> </g> </g> <g> <g> <path d="M112.657,99.346L88.691,75.022c-3.04-3.086-8.001-3.12-11.082-0.083c-3.083,3.038-3.12,8-0.083,11.082l23.965,24.324 c1.534,1.557,3.558,2.336,5.583,2.336c1.986,0,3.974-0.75,5.5-2.254C115.658,107.39,115.694,102.428,112.657,99.346z"/> </g> </g> <g> <g> <path d="M424.729,192.453l-53.025-81.188c-4.475-6.842-12.006-10.927-20.142-10.927h-112.28c-4.329,0-7.837,3.509-7.837,7.837 c0,4.329,3.508,7.837,7.837,7.837h2.146l-37.541,57.471l-37.541-57.471h40.544c4.329,0,7.837-3.508,7.837-7.837 c0-4.328-3.508-7.837-7.837-7.837h-46.448c-8.144,0-15.673,4.087-20.144,10.931l-53.026,81.182 c-5.842,8.94-5.224,20.495,1.535,28.755L237.39,402.786c4.595,5.618,11.379,8.841,18.612,8.841c7.23,0,14.012-3.221,18.609-8.839 l84.218-102.918c2.741-3.35,2.247-8.288-1.102-11.029c-3.35-2.74-8.286-2.248-11.029,1.102l-75.269,91.983l54.819-167.212h82.011 l-39.975,48.851c-2.741,3.35-2.247,8.288,1.102,11.029c1.458,1.192,3.213,1.771,4.959,1.771c2.268,0,4.52-0.98,6.07-2.873 l42.784-52.286C429.954,212.948,430.569,201.394,424.729,192.453z M345.654,116.012l-37.542,57.47l-37.54-57.47H345.654z M151.772,122.363l42.754,65.451l-7.334,11.226h-85.504L151.772,122.363z M256.024,378.598l-31.543-96.813 c-1.341-4.116-5.769-6.367-9.878-5.024c-4.116,1.341-6.364,5.764-5.024,9.878l31.079,95.39L103.746,214.714h82.399l13.904,42.674 c1.077,3.309,4.148,5.411,7.449,5.411c0.805,0,1.624-0.124,2.429-0.388c4.116-1.341,6.365-5.764,5.024-9.878l-12.322-37.818 h39.423c4.329,0,7.837-3.508,7.837-7.837c0-4.329-3.508-7.837-7.837-7.837h-36.138L256,122.363l50.087,76.678h-26.549 c-4.329,0-7.837,3.508-7.837,7.837c0,4.329,3.508,7.837,7.837,7.837h30.212L256.024,378.598z M324.809,199.041l-7.335-11.228 l42.756-65.453l50.082,76.682H324.809z"/> </g> </g> </g>
</svg>